<?xml version="1.0" encoding="UTF-8"?>
<!DOCTYPE svg PUBLIC "-//W3C//DTD SVG 1.1//EN" "http://www.w3.org/Graphics/SVG/1.1/DTD/svg11.dtd">
<!-- Creator: CorelDRAW -->
<svg xmlns="http://www.w3.org/2000/svg" xml:space="preserve" width="63.3907mm" height="10.1603mm" version="1.1" style="shape-rendering:geometricPrecision; text-rendering:geometricPrecision; image-rendering:optimizeQuality; fill-rule:evenodd; clip-rule:evenodd"
viewBox="0 0 6328.64 1014.36"
 xmlns:xlink="http://www.w3.org/1999/xlink"
 xmlns:xodm="http://www.corel.com/coreldraw/odm/2003">
 <defs>
  <style type="text/css">
   <![CDATA[
    .fil0 {fill:white;fill-rule:nonzero}
   ]]>
  </style>
 </defs>
 <g id="Layer_x0020_1">
  <metadata id="CorelCorpID_0Corel-Layer"/>
  <g id="_2578937531184">
   <path class="fil0" d="M738.5 16.91c-204.05,-0.11 -416.95,45.85 -631.84,105.48 -27.29,5.49 -53.91,23.35 -67.99,45.44 -12.95,20.81 -17.65,41.7 -21.69,63.61 -20.87,116.97 -18.33,231.82 -14,359.08 0.95,29.13 5.28,63.66 18.89,84.66 14.21,21.22 38.57,34.68 67.65,39.1 36.75,5.17 74.52,10.12 111.67,13.84l-8.25 229.75c-1.27,18.28 7.66,33.46 18.76,42.21 9.93,7.56 21,10.91 32.36,11.75 22.71,1.72 49.37,-8.01 62.61,-33.21 57.98,-111.58 94.35,-160.83 166.86,-234.96 189.08,4.65 354.15,-5.86 541.03,-19.68 66.06,-1.72 111.42,-55.74 123.41,-98.87 35.84,-111.79 41.42,-249.78 45.23,-389.28 1.61,-55.29 -17.56,-109.57 -51.51,-138.25 -32.28,-26.18 -71.37,-35.66 -107.19,-45.39 -99.4,-22.48 -198.92,-34.58 -285.99,-35.27zm271.81 87.44c35.87,9.74 67.49,19.13 87.44,35.31 33.29,35.37 32.18,58.9 31.7,97.07 -3.75,135.3 -10.25,266.6 -40.78,366.11 -13.16,37.11 -36.08,63.53 -79.4,67.52 -190.4,14.08 -355.59,24.96 -546.97,19.52 -0.29,-0.01 -0.59,-0.02 -0.88,-0.02 -7.24,0 -14.18,2.88 -19.29,8 -80.41,81.2 -121.53,137.62 -182.82,255.59 -1.43,2.7 -4.51,4.33 -8.32,4.62 -2.57,-0.13 -3.59,-2.12 -3.75,-3.91l8.3 -249.15c0.5,-13.45 -10.59,-26.29 -23.96,-27.73 -44.4,-3.96 -89.66,-9.81 -133.69,-16.28 -19.18,-2.94 -26.26,-8.19 -31.51,-16 -9.13,-21.79 -8.93,-35.26 -9.64,-56.21 -4.28,-126.13 -6.39,-236.36 12.97,-346.03 1.8,-16.22 7.87,-32.81 14.32,-46.67 10.67,-16.69 27.03,-19.15 43.43,-23.69 210.15,-58.03 415.76,-101.43 609.34,-101.56 94.88,3.43 194.52,12.94 273.5,33.62l0.03 -0.09zm-725.85 213.69c-28.95,34.68 -26.07,81.79 -3.69,113.32 11.67,16.51 29.9,29.8 52.09,32.81 28.82,2.38 47.1,-9.29 66.83,-22.71 35.74,-31.07 39.36,-85.27 12.18,-124.41 -13.84,-19.95 -35.98,-31.91 -58.58,-32.76 -30.96,0.32 -51.98,14.14 -68.81,33.73l-0.02 0.02zm313.17 -28.31c-28.84,0.93 -52.17,20.9 -66.41,42.45 -16.29,24.65 -25.81,55.5 -12.63,85.74 25.36,58.19 112.97,57.48 147.93,-1.67 16.11,-27.27 11.99,-58.24 0,-80.73 -11.94,-22.45 -30.01,-40.76 -56.29,-44.96 -3.52,-0.57 -7.1,-0.87 -10.68,-0.87 -0.64,0 -1.29,0.01 -1.92,0.02l0 0.01zm254.24 5.47c-8.99,-0.21 -18.23,0.64 -26.89,2.94 -34.65,9.24 -64.16,45.02 -59.7,90.79 2.28,23.03 12.87,45.49 31.96,60.97 19.1,15.45 46.83,22.37 76.07,16.37 33.6,-6.87 54.41,-33.94 61.36,-60.09 6.95,-26.15 5.2,-52.8 -10.93,-74.41 -17,-22.62 -43.53,-36.14 -71.83,-36.57l-0.04 0zm-500.95 42.87c6.47,0.05 11.57,2.12 16.82,9.66 11.75,16.96 8.48,42.66 -3.38,52.96 -11.81,10.3 -19.18,11.2 -24.35,10.51 -5.18,-0.71 -10.43,-4.28 -15.14,-10.93 -8.99,-12.68 -11.62,-33.18 0.19,-47.81 6.29,-8.35 17.83,-13.55 25.89,-14.4l-0.03 0zm250.49 5.89c1.01,0.16 12.26,6.68 17.64,16.8 5.39,10.11 6.39,19.52 1.27,28.15 -15.24,25.78 -47.65,18.81 -52.56,7.58 -1.85,-4.28 -0.45,-21.47 8.46,-34.87 8.85,-13.45 20,-18.49 25.2,-17.7l0 0.04zm279.05 19.76c1.64,2.2 5.63,16.9 2.54,28.58 -3.11,11.67 -8.19,18.89 -20.61,21.42 -15.9,3.27 -24.83,0 -31.51,-5.47 -6.71,-5.41 -11.22,-14.59 -12.2,-24.38 -2.38,-24.3 6.34,-29.93 20.18,-33.62 16.11,-3.96 34.34,2.96 41.6,13.47z"/>
   <path class="fil0" d="M1521.51 125.66c0.42,-6.87 2.94,-13.05 7.58,-18.52 4.41,-5.2 10.87,-8.21 17.68,-8.21 0.29,0 0.57,0.01 0.86,0.02l180.29 0c6.08,0 12.34,2.54 18.81,7.58 6.1,4.38 9.72,11.44 9.72,18.95 0,0.06 0,0.12 0,0.18l0 287.74 301.68 0 0 -287.74c0,-7.29 2.54,-13.55 7.58,-18.81 5.07,-5.28 11.62,-7.93 19.73,-7.93l177.88 0c8.09,0 15.17,2.04 21.23,6.08 6.08,4.06 9.11,10.54 9.11,19.44l0 849.24c0,8.91 -2.65,15.58 -7.93,20.03 -5.23,4.46 -12.12,6.68 -20.61,6.68l-179.69 0c-8.09,0 -14.66,-2.22 -19.73,-6.68 -5.04,-4.44 -7.58,-11.09 -7.58,-20.03l0 -344.79 -301.68 0 0 344.79c0,8.51 -2.75,15.06 -8.19,19.73 -5.47,4.65 -12.87,6.98 -22.19,6.98l-178.46 0c-16.98,0 -25.68,-7.9 -26.1,-23.67l-0.01 -851.06zm1660.83 864.42c-5.26,4.44 -10.83,7.27 -16.69,8.48 -5.46,1.17 -11.05,1.81 -16.65,1.85l-91.68 0c-7.29,0 -13.58,-1.32 -18.83,-3.96 -5.28,-2.65 -9.72,-6.18 -13.37,-10.62 -3.71,-4.6 -6.79,-9.72 -9.08,-15.18 -2.44,-5.71 -4.48,-11.62 -6.08,-17.6l-18.81 -77.71c-6.08,12.55 -14.88,26.82 -26.42,42.79 -12.45,16.93 -27.32,32.12 -44.01,44.91 -17.8,14 -39.07,25.73 -63.73,35.24 -24.7,9.51 -53.01,14.27 -85,14.27 -46.12,0 -88.01,-8.91 -125.65,-26.71 -36.81,-17.19 -69.69,-42.09 -96.2,-72.86 -26.5,-30.75 -47.04,-66.67 -61.6,-107.77 -14.59,-41.05 -21.87,-84.87 -21.87,-131.38l-0.01 -397.61c0,-15.37 3.35,-27 10.03,-34.89 6.66,-7.9 17.27,-11.83 31.86,-11.83l140.21 0c17.43,0 29.35,2.91 35.82,8.8 6.47,5.86 9.72,17.3 9.72,34.28l0 395.17c0,17.43 3.96,33.91 11.83,49.5 7.9,15.58 18.31,29.32 31.28,41.26 12.94,11.94 27.6,21.36 44.01,28.23 16.37,6.87 33.08,10.3 50.09,10.3 14.56,0 29.64,-3.43 45.23,-10.3 15.66,-6.94 30.23,-16.29 43.07,-27.63 13.16,-11.52 23.98,-25.1 32.49,-40.68 8.51,-15.58 12.73,-32.07 12.73,-49.45l0.01 -394.57c0,-6.87 1.32,-13.74 3.96,-20.63 2.65,-6.87 6.58,-12.15 11.83,-15.79 5.26,-3.22 10.22,-5.44 14.88,-6.66 4.65,-1.22 10.03,-1.85 16.08,-1.85l137.2 -0.01c17.38,0 29.93,4.28 37.62,12.76 7.69,8.51 11.54,19.84 11.54,33.99l0 679.28c0,7.66 -1.72,14.77 -5.15,21.23 -3.43,6.47 -8.19,11.54 -14.27,15.17l3.61 -1.8 0 0.01zm704.78 -83.79c-10.93,10.93 -22.98,22.66 -36.11,35.21 -13.16,12.55 -27.63,24.3 -43.4,35.21 -15.85,10.95 -33.02,20.07 -50.98,27.03 -18.37,7.02 -37.88,10.61 -57.54,10.61 -0.45,0 -0.93,0 -1.38,0 -55.02,0 -105.72,-10.3 -152.07,-30.96 -45.13,-19.76 -85.92,-48.68 -119.59,-84.67 -33.38,-35.82 -59.48,-78 -78.29,-126.58 -18.83,-48.55 -28.23,-100.74 -28.23,-156.61 0,-56.27 9.4,-108.56 28.23,-156.9 18.81,-48.34 44.91,-90.44 78.29,-126.26 33.66,-35.99 74.39,-64.79 119.58,-84.4 46.35,-20.45 97.05,-30.67 152.07,-30.67 22.26,0 42.61,3.24 61.02,9.72 17.75,6.15 34.71,14.56 50.39,24.9 15.18,10.11 29.13,21.55 41.89,34.28 12.73,12.76 24.78,25.2 36.11,37.35l0 -277.43c0,-12.94 3.96,-23.85 11.83,-32.76 7.9,-8.93 19.73,-13.37 35.53,-13.37l136.56 0.01c5.28,0 10.83,1.11 16.69,3.32 5.86,2.25 11.22,5.36 16.11,9.43 4.83,4.04 8.77,8.91 11.81,14.56 3.03,5.68 4.57,11.94 4.57,18.81l0 907.53c0,31.17 -16.37,46.75 -49.19,46.75l-118.97 -0.01c-8.09,0 -14.37,-1.06 -18.81,-3.06 -4.4,-1.98 -8.28,-5 -11.26,-8.8 -3.37,-4.45 -6.14,-9.36 -8.19,-14.56 -2.79,-6.81 -5.94,-13.71 -9.09,-20.34l-17.62 -47.36 0.01 0zm-349.04 -290.77c-0.01,0.56 -0.01,1.18 -0.01,1.75 0,24.92 4.22,49.73 12.45,73.24 8.3,23.24 20.13,43.4 35.53,60.38 15.53,17.11 34.45,30.86 55.52,40.35 21.66,9.93 45.64,14.88 71.95,14.88 25.89,0 50.27,-4.65 73.14,-13.95 22.19,-8.87 42.52,-22.02 59.77,-38.58 17.15,-16.57 31.07,-36.25 40.99,-57.94 10.3,-22.26 16.08,-46.14 17.3,-71.64l0 -8.51c0.02,-0.21 0.02,-0.47 0.02,-0.68 0,-25.17 -4.96,-50.11 -14.59,-73.35 -9.37,-22.96 -23.15,-44.06 -40.37,-61.92 -17.27,-17.85 -37.92,-32.22 -60.69,-42.19 -23.3,-10.18 -48.5,-15.47 -73.95,-15.47 -0.54,0 -1.08,0 -1.62,0 -26.31,0 -50.3,5.15 -71.95,15.47 -21.66,10.3 -40.15,24.38 -55.53,42.18 -15.6,18.21 -27.69,39.27 -35.53,61.93 -8.22,23.41 -12.42,48.13 -12.42,72.96 0,0.35 0,0.73 0,1.08l-0.02 0.01zm1286.93 290.77c-10.93,10.93 -22.98,22.66 -36.14,35.21 -13.16,12.55 -27.63,24.3 -43.4,35.21 -15.84,10.95 -33.01,20.07 -50.97,27.03 -18.38,7.02 -37.89,10.61 -57.55,10.61 -0.45,0 -0.93,0 -1.38,0 -55.02,0 -105.72,-10.3 -152.04,-30.96 -45.14,-19.78 -85.92,-48.7 -119.59,-84.69 -33.36,-35.82 -59.48,-78 -78.29,-126.58 -18.81,-48.55 -28.23,-100.74 -28.23,-156.61 0,-56.27 9.43,-108.56 28.23,-156.9 18.8,-48.34 44.91,-90.44 78.29,-126.26 33.62,-35.95 74.39,-64.75 119.59,-84.36 46.33,-20.45 97.02,-30.67 152.04,-30.67 22.26,0 42.61,3.24 61.02,9.72 17.74,6.13 34.7,14.54 50.38,24.88 15.18,10.11 29.13,21.55 41.89,34.28 12.76,12.76 24.78,25.2 36.11,37.35l0 -277.43c0,-12.94 3.96,-23.85 11.83,-32.76 7.93,-8.93 19.73,-13.37 35.53,-13.37l136.56 0.01c5.28,0 10.83,1.11 16.69,3.32 5.89,2.25 11.25,5.36 16.11,9.43 4.83,4.04 8.8,8.91 11.83,14.56 3.02,5.68 4.54,11.94 4.54,18.81l0 907.53c0,31.17 -16.37,46.75 -49.19,46.75l-118.96 -0.01c-8.09,0 -14.37,-1.06 -18.81,-3.06 -4.39,-1.98 -8.25,-5 -11.22,-8.8 -3.38,-4.45 -6.15,-9.36 -8.2,-14.56 -2.82,-6.8 -5.97,-13.71 -9.11,-20.34l-17.62 -47.36 0.04 0zm-349.07 -290.77c-0.01,0.56 -0.01,1.18 -0.01,1.75 0,24.92 4.22,49.73 12.45,73.24 8.32,23.24 20.16,43.4 35.53,60.38 15.54,17.09 34.48,30.86 55.55,40.35 21.66,9.93 45.61,14.88 71.93,14.88 25.89,0 50.27,-4.65 73.14,-13.95 22.19,-8.89 42.54,-22.02 59.79,-38.57 17.11,-16.56 31.05,-36.29 40.95,-57.95 10.33,-22.26 16.11,-46.14 17.33,-71.64l0 -8.51c0,-0.21 0,-0.47 0,-0.68 0,-25.17 -4.96,-50.11 -14.59,-73.35 -9.36,-22.96 -23.14,-44.06 -40.36,-61.92 -17.27,-17.85 -37.92,-32.22 -60.69,-42.19 -23.31,-10.18 -48.51,-15.47 -73.96,-15.47 -0.54,0 -1.08,0 -1.62,0 -26.31,0 -50.3,5.15 -71.93,15.47 -21.66,10.3 -40.17,24.38 -55.55,42.18 -15.6,18.21 -27.69,39.27 -35.53,61.93 -8.22,23.41 -12.42,48.13 -12.42,72.96 0,0.35 0,0.73 0,1.08l-0.02 0.01zm743.65 -568.79c0,-12.94 3.22,-23.85 9.69,-32.76 6.5,-8.93 17.62,-13.37 33.38,-13.37l148.72 0c4.06,0 8.32,1.11 12.76,3.32 4.65,2.4 8.88,5.59 12.44,9.43 3.85,4.04 7.08,8.91 9.72,14.56 2.65,5.68 3.96,11.94 3.96,18.81l0 906.92c0,15.37 -4.36,27 -13.08,34.89 -8.69,7.9 -19.92,11.83 -33.67,11.83l-140.86 0.01c-15.77,0 -26.89,-3.96 -33.38,-11.83 -6.47,-7.9 -9.69,-19.55 -9.69,-34.89l0 -906.93zm1022.25 861.39c-35.15,32.5 -75.93,58.56 -120.17,76.78 -44.25,18.19 -91.75,27.62 -139.61,27.62 -0.58,0 -1.3,0 -1.88,0 -55.47,0 -107.85,-10.11 -157.22,-30.38 -48.19,-19.5 -92.36,-48.08 -129.89,-84.05 -37.38,-36.05 -67.52,-79.09 -88.6,-126.57 -21.87,-48.55 -32.78,-101.35 -32.78,-158.44 0,-35.61 4.33,-70.1 13.05,-103.49 8.39,-32.66 20.9,-64.19 37.04,-93.79 15.96,-29.08 35.57,-56.18 58.24,-80.4 22.65,-24.27 48.53,-45.48 76.8,-62.85 28.74,-17.58 59.88,-31.35 92.27,-40.68 33.41,-9.62 68.21,-14.58 103.04,-14.58 0.64,0 1.32,0 1.96,0 33.6,0 66.17,4.46 97.74,13.37 31.57,8.91 61.23,21.44 88.94,37.62 27.73,16.19 53.09,35.63 76.18,58.29 22.69,22.25 42.72,47.28 59.43,74.38 16.56,26.85 29.61,55.93 38.59,86.19 9.09,30.56 13.66,62.02 13.66,94.38 0,21.06 -0.32,38.25 -0.93,51.61 -0.61,13.34 -3.75,23.98 -9.4,31.86 -5.68,7.93 -15.06,13.37 -28.23,16.37 -13.16,3.06 -32.49,4.57 -57.95,4.57l-437.06 -0.01c4.04,25.89 12.23,47.55 24.57,64.98 11.42,16.47 25.99,30.6 42.79,41.52 16.19,10.33 33.38,17.7 51.61,22.19 16.83,4.26 34.21,6.55 51.59,6.68 14.59,0 29.53,-1.53 44.91,-4.54 15.11,-2.95 30.1,-7.07 44.64,-12.17 13.63,-4.71 26.85,-10.66 39.45,-17.62 11.94,-6.66 21.55,-13.66 28.84,-20.93 6.47,-5.28 12.05,-9.21 16.69,-11.86 4.65,-2.65 9.61,-3.93 14.88,-3.93 5.28,0 10.62,1.85 16.11,5.47 6.62,4.65 12.84,9.96 18.47,15.78l64.34 72.85c4.44,5.28 7.29,10.03 8.51,14.27 1.22,4.25 1.83,8.62 1.83,13.05 0,8.11 -2.25,15.09 -6.68,20.95 -4.49,5.88 -9.82,11.11 -15.8,15.47l0.03 0.01zm-291.99 -505.66c-15.79,0 -31.07,3.14 -45.83,9.4 -14.96,6.38 -29.02,14.89 -41.6,25.19 -12.94,10.51 -24.57,22.45 -34.89,35.82 -9.84,12.59 -18.34,26.29 -25.21,40.68l310.2 0c-8.12,-15.19 -17.37,-29.86 -27.58,-43.7 -9.75,-13.16 -21.2,-25.04 -34,-35.22 -13.11,-10.32 -27.93,-18.33 -43.73,-23.67 -16.37,-5.68 -35.5,-8.51 -57.35,-8.51z"/>
  </g>
 </g>
</svg>
